# xmcd
#
# Track frame offsets:
#	150
#	27433
#	46321
#	66820
#	84247
#	105092
#	123898
#	150361
#	169551
#	192477
#	210787
#	231208
#	258387
#	279244
#
# Disc length: 3929 seconds
#
# Revision: 1
# Processed by: cddbd v1.5.2PL0 Copyright (c) Steve Scherf et al.
# Submitted via: audiograbber 1.83.01
#
DISCID=a30f570e
DTITLE=Mike Dugan and The Blues Mission - Mission Accomplished!
DYEAR=1900
DGENRE=
TTITLE0=Good Old Days
TTITLE1=Snake Bit
TTITLE2=Long Distance Woman
TTITLE3=Surfin' With My Baby
TTITLE4=A Bad Case of the In Betweens
TTITLE5=Gotta Good Feelin'
TTITLE6=Blues Mind (Tribute to Peter Green)
TTITLE7=My Brother From Another Mother
TTITLE8=Survival Blues
TTITLE9=Drown In My Sorrows
TTITLE10=You Get What You Pay For
TTITLE11=Life's Joy
TTITLE12=When Things Are Right With You (Bernadette's Song)
TTITLE13=The Worst is Over
EXTD=
EXTT0=
EXTT1=
EXTT2=
EXTT3=
EXTT4=
EXTT5=
EXTT6=
EXTT7=
EXTT8=
EXTT9=
EXTT10=
EXTT11=
EXTT12=
EXTT13=
PLAYORDER=
